<mxfile host="65bd71144e">
    <diagram id="qyU1db9KLMcStEmuU9S3" name="Page-1">
        <mxGraphModel dx="1911" dy="1133" grid="0" gridSize="10" guides="1" tooltips="1" connect="1" arrows="1" fold="1" page="0" pageScale="1" pageWidth="850" pageHeight="1100" math="0" shadow="0">
            <root>
                <mxCell id="0"/>
                <mxCell id="1" parent="0"/>
                <mxCell id="4" value="Yes" style="edgeStyle=none;html=1;exitX=0.5;exitY=1;exitDx=0;exitDy=0;" edge="1" parent="1" source="52" target="3">
                    <mxGeometry relative="1" as="geometry">
                        <mxPoint x="370" y="230" as="sourcePoint"/>
                        <Array as="points">
                            <mxPoint x="370" y="250"/>
                        </Array>
                    </mxGeometry>
                </mxCell>
                <mxCell id="12" value="No" style="edgeStyle=none;html=1;" edge="1" parent="1" source="3" target="11">
                    <mxGeometry relative="1" as="geometry">
                        <Array as="points">
                            <mxPoint x="370" y="380"/>
                        </Array>
                    </mxGeometry>
                </mxCell>
                <mxCell id="31" value="Yes" style="edgeStyle=none;html=1;entryX=0;entryY=0.5;entryDx=0;entryDy=0;" edge="1" parent="1" source="3" target="56">
                    <mxGeometry relative="1" as="geometry">
                        <mxPoint x="483.44000000000074" y="320" as="targetPoint"/>
                    </mxGeometry>
                </mxCell>
                <mxCell id="3" value="has 3 minutes passed?" style="rhombus;whiteSpace=wrap;html=1;" vertex="1" parent="1">
                    <mxGeometry x="310" y="280" width="120" height="80" as="geometry"/>
                </mxCell>
                <mxCell id="32" value="" style="edgeStyle=none;html=1;exitX=1;exitY=0.5;exitDx=0;exitDy=0;entryX=0;entryY=0.5;entryDx=0;entryDy=0;" edge="1" parent="1" target="8">
                    <mxGeometry relative="1" as="geometry">
                        <mxPoint x="597.18" y="320" as="sourcePoint"/>
                        <mxPoint x="810.62" y="270" as="targetPoint"/>
                    </mxGeometry>
                </mxCell>
                <mxCell id="59" style="edgeStyle=none;html=1;exitX=1;exitY=0.5;exitDx=0;exitDy=0;entryX=0.5;entryY=1;entryDx=0;entryDy=0;" edge="1" parent="1" source="8" target="58">
                    <mxGeometry relative="1" as="geometry"/>
                </mxCell>
                <mxCell id="8" value="directed to&lt;br&gt;Today's Quiz" style="rounded=1;whiteSpace=wrap;html=1;" vertex="1" parent="1">
                    <mxGeometry x="652.5" y="290" width="120" height="60" as="geometry"/>
                </mxCell>
                <mxCell id="14" style="edgeStyle=none;html=1;exitX=0.5;exitY=1;exitDx=0;exitDy=0;entryX=0.5;entryY=0;entryDx=0;entryDy=0;" edge="1" parent="1" source="11" target="63">
                    <mxGeometry relative="1" as="geometry"/>
                </mxCell>
                <mxCell id="11" value="Nudge Question" style="rounded=1;whiteSpace=wrap;html=1;" vertex="1" parent="1">
                    <mxGeometry x="310" y="430" width="120" height="60" as="geometry"/>
                </mxCell>
                <mxCell id="16" value="No" style="edgeStyle=none;html=1;exitX=1;exitY=0.5;exitDx=0;exitDy=0;entryX=0.5;entryY=1;entryDx=0;entryDy=0;" edge="1" parent="1" source="13" target="19">
                    <mxGeometry relative="1" as="geometry">
                        <mxPoint x="482.5" y="760" as="targetPoint"/>
                    </mxGeometry>
                </mxCell>
                <mxCell id="18" value="Yes" style="edgeStyle=none;html=1;" edge="1" parent="1" source="13" target="17">
                    <mxGeometry relative="1" as="geometry"/>
                </mxCell>
                <mxCell id="13" value="was answer correct?" style="rhombus;whiteSpace=wrap;html=1;" vertex="1" parent="1">
                    <mxGeometry x="317.5" y="720" width="105" height="100" as="geometry"/>
                </mxCell>
                <mxCell id="21" value="" style="edgeStyle=none;html=1;entryX=0;entryY=0.5;entryDx=0;entryDy=0;" edge="1" parent="1" source="17" target="38">
                    <mxGeometry relative="1" as="geometry">
                        <mxPoint x="481.1300000000001" y="1058" as="targetPoint"/>
                    </mxGeometry>
                </mxCell>
                <mxCell id="22" value="No" style="edgeLabel;html=1;align=center;verticalAlign=middle;resizable=0;points=[];" vertex="1" connectable="0" parent="21">
                    <mxGeometry x="-0.3913" y="2" relative="1" as="geometry">
                        <mxPoint x="15" y="2" as="offset"/>
                    </mxGeometry>
                </mxCell>
                <mxCell id="24" value="Yes" style="edgeStyle=none;html=1;entryX=0.5;entryY=0;entryDx=0;entryDy=0;" edge="1" parent="1" source="17" target="44">
                    <mxGeometry relative="1" as="geometry">
                        <mxPoint x="374.3788461538463" y="1157.9999999999998" as="targetPoint"/>
                    </mxGeometry>
                </mxCell>
                <mxCell id="17" value="was it answered&lt;br&gt;&amp;nbsp;in 1 min?" style="rhombus;whiteSpace=wrap;html=1;direction=south;" vertex="1" parent="1">
                    <mxGeometry x="323.75" y="1008" width="101.25" height="100" as="geometry"/>
                </mxCell>
                <mxCell id="26" value="No" style="edgeStyle=none;html=1;entryX=0;entryY=0.5;entryDx=0;entryDy=0;" edge="1" parent="1" source="19" target="34">
                    <mxGeometry relative="1" as="geometry">
                        <mxPoint x="658.5" y="770" as="targetPoint"/>
                    </mxGeometry>
                </mxCell>
                <mxCell id="28" value="" style="edgeStyle=none;html=1;entryX=0.5;entryY=0;entryDx=0;entryDy=0;" edge="1" parent="1" source="19" target="35">
                    <mxGeometry relative="1" as="geometry">
                        <mxPoint x="541.1326923076922" y="860" as="targetPoint"/>
                    </mxGeometry>
                </mxCell>
                <mxCell id="19" value="answered&lt;br&gt;&amp;nbsp;in 1 min?" style="rhombus;whiteSpace=wrap;html=1;direction=south;" vertex="1" parent="1">
                    <mxGeometry x="490.5" y="720" width="101.25" height="100" as="geometry"/>
                </mxCell>
                <mxCell id="40" style="edgeStyle=none;html=1;exitX=1;exitY=0.5;exitDx=0;exitDy=0;entryX=0;entryY=0.5;entryDx=0;entryDy=0;" edge="1" parent="1" source="34" target="39">
                    <mxGeometry relative="1" as="geometry"/>
                </mxCell>
                <mxCell id="34" value="15 points for&lt;br&gt;turning up" style="ellipse;whiteSpace=wrap;html=1;aspect=fixed;" vertex="1" parent="1">
                    <mxGeometry x="672.5" y="730" width="80" height="80" as="geometry"/>
                </mxCell>
                <mxCell id="42" style="edgeStyle=none;html=1;exitX=1;exitY=0.5;exitDx=0;exitDy=0;entryX=0.5;entryY=1;entryDx=0;entryDy=0;" edge="1" parent="1" source="35" target="39">
                    <mxGeometry relative="1" as="geometry">
                        <Array as="points">
                            <mxPoint x="947.5" y="910"/>
                        </Array>
                    </mxGeometry>
                </mxCell>
                <mxCell id="35" value="15 points for turning up&lt;br&gt;Time bonus x 2&lt;br&gt;(30 points total)" style="ellipse;whiteSpace=wrap;html=1;aspect=fixed;" vertex="1" parent="1">
                    <mxGeometry x="490.5" y="860" width="100" height="100" as="geometry"/>
                </mxCell>
                <mxCell id="43" style="edgeStyle=none;html=1;exitX=1;exitY=0.5;exitDx=0;exitDy=0;entryX=0.5;entryY=1;entryDx=0;entryDy=0;" edge="1" parent="1" source="38" target="39">
                    <mxGeometry relative="1" as="geometry">
                        <Array as="points">
                            <mxPoint x="947.5" y="1058"/>
                        </Array>
                    </mxGeometry>
                </mxCell>
                <mxCell id="38" value="Score 100 points&lt;br&gt;No Time Bonus" style="ellipse;whiteSpace=wrap;html=1;aspect=fixed;" vertex="1" parent="1">
                    <mxGeometry x="500.13" y="1017" width="82" height="82" as="geometry"/>
                </mxCell>
                <mxCell id="54" value="" style="edgeStyle=none;html=1;entryX=0;entryY=0.5;entryDx=0;entryDy=0;" edge="1" parent="1" source="39" target="53">
                    <mxGeometry relative="1" as="geometry">
                        <mxPoint x="1102.5" y="770" as="targetPoint"/>
                    </mxGeometry>
                </mxCell>
                <mxCell id="39" value="+1 streak" style="ellipse;whiteSpace=wrap;html=1;aspect=fixed;" vertex="1" parent="1">
                    <mxGeometry x="907.5" y="730" width="80" height="80" as="geometry"/>
                </mxCell>
                <mxCell id="45" style="edgeStyle=none;html=1;exitX=1;exitY=0.5;exitDx=0;exitDy=0;entryX=0.5;entryY=1;entryDx=0;entryDy=0;" edge="1" parent="1" source="44" target="39">
                    <mxGeometry relative="1" as="geometry">
                        <Array as="points">
                            <mxPoint x="948" y="1238"/>
                        </Array>
                    </mxGeometry>
                </mxCell>
                <mxCell id="44" value="Score 100 points&lt;br&gt;Time bonus x 2&amp;nbsp;&lt;br&gt;(200 points total)" style="ellipse;whiteSpace=wrap;html=1;aspect=fixed;" vertex="1" parent="1">
                    <mxGeometry x="320" y="1180" width="110" height="110" as="geometry"/>
                </mxCell>
                <mxCell id="46" value="&lt;h1&gt;&lt;span style=&quot;font-weight: normal;&quot;&gt;User Journey&lt;/span&gt;&lt;/h1&gt;&lt;h1 style=&quot;&quot;&gt;Nudge Question&lt;/h1&gt;" style="text;html=1;strokeColor=none;fillColor=none;spacing=5;spacingTop=-20;whiteSpace=wrap;overflow=hidden;rounded=0;align=center;" vertex="1" parent="1">
                    <mxGeometry x="139.38" y="-154" width="470" height="120" as="geometry"/>
                </mxCell>
                <mxCell id="51" value="" style="edgeStyle=none;html=1;" edge="1" parent="1" source="50">
                    <mxGeometry relative="1" as="geometry">
                        <mxPoint x="370" y="131" as="targetPoint"/>
                    </mxGeometry>
                </mxCell>
                <mxCell id="50" value="Nudge notification sent to user" style="rounded=1;whiteSpace=wrap;html=1;" vertex="1" parent="1">
                    <mxGeometry x="310" y="-30" width="120" height="60" as="geometry"/>
                </mxCell>
                <mxCell id="52" value="Does user click notification" style="rhombus;whiteSpace=wrap;html=1;" vertex="1" parent="1">
                    <mxGeometry x="310" y="101" width="120" height="90" as="geometry"/>
                </mxCell>
                <mxCell id="53" value="directed to &lt;br&gt;Today's Quiz&lt;br&gt;or dashboard" style="rounded=1;whiteSpace=wrap;html=1;" vertex="1" parent="1">
                    <mxGeometry x="1066" y="740" width="120" height="60" as="geometry"/>
                </mxCell>
                <mxCell id="56" value="Too late to answer nudge, but can keep streak by completing today's quiz" style="rounded=1;whiteSpace=wrap;html=1;" vertex="1" parent="1">
                    <mxGeometry x="483.12" y="290" width="120" height="60" as="geometry"/>
                </mxCell>
                <mxCell id="60" value="Yes" style="edgeStyle=none;html=1;exitX=1;exitY=0.5;exitDx=0;exitDy=0;entryX=0.5;entryY=0;entryDx=0;entryDy=0;" edge="1" parent="1" source="58" target="39">
                    <mxGeometry x="0.0278" relative="1" as="geometry">
                        <Array as="points"/>
                        <mxPoint as="offset"/>
                    </mxGeometry>
                </mxCell>
                <mxCell id="62" value="No" style="edgeStyle=none;html=1;" edge="1" parent="1" source="58" target="61">
                    <mxGeometry relative="1" as="geometry"/>
                </mxCell>
                <mxCell id="58" value="does user &lt;br&gt;complete today's quiz &lt;br&gt;before 12am" style="rhombus;whiteSpace=wrap;html=1;direction=south;" vertex="1" parent="1">
                    <mxGeometry x="877.5" y="270" width="140" height="100" as="geometry"/>
                </mxCell>
                <mxCell id="73" value="" style="edgeStyle=none;html=1;" edge="1" parent="1" source="61" target="72">
                    <mxGeometry relative="1" as="geometry"/>
                </mxCell>
                <mxCell id="61" value="-1 streak" style="ellipse;whiteSpace=wrap;html=1;" vertex="1" parent="1">
                    <mxGeometry x="1085.9950000000001" y="280" width="80" height="80" as="geometry"/>
                </mxCell>
                <mxCell id="65" value="Yes" style="edgeStyle=none;html=1;exitX=0.5;exitY=1;exitDx=0;exitDy=0;" edge="1" parent="1" source="63">
                    <mxGeometry relative="1" as="geometry">
                        <mxPoint x="370" y="720" as="targetPoint"/>
                        <Array as="points"/>
                    </mxGeometry>
                </mxCell>
                <mxCell id="70" style="edgeStyle=none;html=1;exitX=1;exitY=0.5;exitDx=0;exitDy=0;entryX=0;entryY=0.5;entryDx=0;entryDy=0;" edge="1" parent="1" source="63" target="58">
                    <mxGeometry relative="1" as="geometry">
                        <mxPoint x="948" y="211" as="targetPoint"/>
                        <Array as="points">
                            <mxPoint x="814" y="600"/>
                            <mxPoint x="814" y="216"/>
                            <mxPoint x="948" y="216"/>
                        </Array>
                    </mxGeometry>
                </mxCell>
                <mxCell id="71" value="No" style="edgeLabel;html=1;align=center;verticalAlign=middle;resizable=0;points=[];" vertex="1" connectable="0" parent="70">
                    <mxGeometry x="-0.4407" y="2" relative="1" as="geometry">
                        <mxPoint as="offset"/>
                    </mxGeometry>
                </mxCell>
                <mxCell id="63" value="does user &lt;br&gt;submit answer?" style="rhombus;whiteSpace=wrap;html=1;" vertex="1" parent="1">
                    <mxGeometry x="317.5" y="550" width="105" height="100" as="geometry"/>
                </mxCell>
                <mxCell id="75" value="No" style="edgeStyle=none;html=1;" edge="1" parent="1" source="72" target="74">
                    <mxGeometry relative="1" as="geometry"/>
                </mxCell>
                <mxCell id="76" value="Yes" style="edgeStyle=none;html=1;exitX=0.5;exitY=0;exitDx=0;exitDy=0;" edge="1" parent="1" source="72">
                    <mxGeometry relative="1" as="geometry">
                        <mxPoint x="946.7058823529412" y="269.8823529411766" as="targetPoint"/>
                        <Array as="points">
                            <mxPoint x="1302" y="217"/>
                            <mxPoint x="1110" y="217"/>
                            <mxPoint x="947" y="217"/>
                            <mxPoint x="947" y="242"/>
                        </Array>
                    </mxGeometry>
                </mxCell>
                <mxCell id="72" value="has&amp;nbsp; user &lt;br&gt;completed &lt;br&gt;any quiz&lt;br&gt;in the&amp;nbsp;last &lt;br&gt;3 days?" style="rhombus;whiteSpace=wrap;html=1;" vertex="1" parent="1">
                    <mxGeometry x="1229" y="270" width="145" height="103" as="geometry"/>
                </mxCell>
                <mxCell id="74" value="streak reset to 0 days" style="ellipse;whiteSpace=wrap;html=1;" vertex="1" parent="1">
                    <mxGeometry x="1444.9950000000001" y="281.5" width="80" height="80" as="geometry"/>
                </mxCell>
                <mxCell id="78" value="&lt;h1&gt;&lt;span style=&quot;font-weight: normal;&quot;&gt;User Journey&lt;/span&gt;&lt;/h1&gt;&lt;h1 style=&quot;&quot;&gt;Non-Nudge Quiz Scoring Guide&lt;/h1&gt;" style="text;html=1;strokeColor=none;fillColor=none;spacing=5;spacingTop=-20;whiteSpace=wrap;overflow=hidden;rounded=0;align=center;" vertex="1" parent="1">
                    <mxGeometry x="-510" y="-154" width="470" height="120" as="geometry"/>
                </mxCell>
                <mxCell id="81" value="" style="edgeStyle=none;html=1;" edge="1" parent="1" source="79" target="80">
                    <mxGeometry relative="1" as="geometry"/>
                </mxCell>
                <mxCell id="79" value="User begins quiz" style="rounded=1;whiteSpace=wrap;html=1;" vertex="1" parent="1">
                    <mxGeometry x="-344" y="-38.75" width="120" height="60" as="geometry"/>
                </mxCell>
                <mxCell id="83" value="yes" style="edgeStyle=none;html=1;exitX=0.5;exitY=1;exitDx=0;exitDy=0;" edge="1" parent="1" source="80" target="82">
                    <mxGeometry x="-0.0385" y="2" relative="1" as="geometry">
                        <mxPoint as="offset"/>
                    </mxGeometry>
                </mxCell>
                <mxCell id="85" value="no" style="edgeStyle=none;html=1;" edge="1" parent="1" source="80" target="84">
                    <mxGeometry relative="1" as="geometry"/>
                </mxCell>
                <mxCell id="80" value="does user get &lt;br&gt;question correct" style="rhombus;whiteSpace=wrap;html=1;" vertex="1" parent="1">
                    <mxGeometry x="-348.25" y="70.25" width="128.5" height="108" as="geometry"/>
                </mxCell>
                <mxCell id="87" style="edgeStyle=none;html=1;exitX=0.5;exitY=1;exitDx=0;exitDy=0;" edge="1" parent="1" source="82" target="86">
                    <mxGeometry relative="1" as="geometry"/>
                </mxCell>
                <mxCell id="82" value="10 points" style="ellipse;whiteSpace=wrap;html=1;aspect=fixed;" vertex="1" parent="1">
                    <mxGeometry x="-324" y="240.25" width="80" height="80" as="geometry"/>
                </mxCell>
                <mxCell id="90" style="edgeStyle=none;html=1;exitX=0.5;exitY=1;exitDx=0;exitDy=0;entryX=1;entryY=0.5;entryDx=0;entryDy=0;" edge="1" parent="1" source="84" target="86">
                    <mxGeometry relative="1" as="geometry">
                        <Array as="points">
                            <mxPoint x="-133" y="429.25"/>
                        </Array>
                    </mxGeometry>
                </mxCell>
                <mxCell id="84" value="0 points" style="ellipse;whiteSpace=wrap;html=1;aspect=fixed;" vertex="1" parent="1">
                    <mxGeometry x="-173" y="84.25" width="80" height="80" as="geometry"/>
                </mxCell>
                <mxCell id="88" style="edgeStyle=none;html=1;exitX=0;exitY=0.5;exitDx=0;exitDy=0;" edge="1" parent="1" source="86">
                    <mxGeometry relative="1" as="geometry">
                        <mxPoint x="-348.83333333333303" y="122.08333333333348" as="targetPoint"/>
                        <Array as="points">
                            <mxPoint x="-404" y="429.25"/>
                            <mxPoint x="-404" y="122"/>
                        </Array>
                    </mxGeometry>
                </mxCell>
                <mxCell id="89" value="No" style="edgeLabel;html=1;align=center;verticalAlign=middle;resizable=0;points=[];" vertex="1" connectable="0" parent="88">
                    <mxGeometry x="-0.1816" y="2" relative="1" as="geometry">
                        <mxPoint as="offset"/>
                    </mxGeometry>
                </mxCell>
                <mxCell id="91" value="Yes" style="edgeStyle=none;html=1;exitX=0.5;exitY=1;exitDx=0;exitDy=0;entryX=0.5;entryY=0;entryDx=0;entryDy=0;" edge="1" parent="1" source="86" target="92">
                    <mxGeometry relative="1" as="geometry">
                        <mxPoint x="-283.83333333333303" y="526.25" as="targetPoint"/>
                    </mxGeometry>
                </mxCell>
                <mxCell id="86" value="have all questions &lt;br&gt;been asked?" style="rhombus;whiteSpace=wrap;html=1;" vertex="1" parent="1">
                    <mxGeometry x="-348.75" y="376.25" width="129" height="105" as="geometry"/>
                </mxCell>
                <mxCell id="93" value="No" style="edgeStyle=none;html=1;exitX=0.5;exitY=1;exitDx=0;exitDy=0;entryX=0.5;entryY=0;entryDx=0;entryDy=0;" edge="1" parent="1" source="92" target="106">
                    <mxGeometry relative="1" as="geometry">
                        <mxPoint x="-284" y="721.25" as="targetPoint"/>
                    </mxGeometry>
                </mxCell>
                <mxCell id="95" value="Yes" style="edgeStyle=none;html=1;exitX=1;exitY=0.5;exitDx=0;exitDy=0;entryX=0;entryY=0.5;entryDx=0;entryDy=0;" edge="1" parent="1" source="92" target="94">
                    <mxGeometry relative="1" as="geometry"/>
                </mxCell>
                <mxCell id="92" value="did user get &lt;br&gt;any questions &lt;br&gt;incorrect?" style="rhombus;whiteSpace=wrap;html=1;" vertex="1" parent="1">
                    <mxGeometry x="-348.75" y="546.25" width="129" height="105" as="geometry"/>
                </mxCell>
                <mxCell id="103" style="edgeStyle=none;html=1;exitX=0.5;exitY=1;exitDx=0;exitDy=0;" edge="1" parent="1" source="94" target="107">
                    <mxGeometry relative="1" as="geometry">
                        <mxPoint x="3" y="726" as="targetPoint"/>
                    </mxGeometry>
                </mxCell>
                <mxCell id="94" value="reask incorrect questions until all questions have been answered correctly" style="rounded=1;whiteSpace=wrap;html=1;" vertex="1" parent="1">
                    <mxGeometry x="-149" y="569.25" width="120" height="60" as="geometry"/>
                </mxCell>
                <mxCell id="105" style="edgeStyle=none;html=1;exitX=1;exitY=0.5;exitDx=0;exitDy=0;entryX=0;entryY=0.5;entryDx=0;entryDy=0;startArrow=none;" edge="1" parent="1" source="107">
                    <mxGeometry relative="1" as="geometry">
                        <mxPoint x="-246" y="751.25" as="sourcePoint"/>
                        <mxPoint x="-57" y="756" as="targetPoint"/>
                    </mxGeometry>
                </mxCell>
                <mxCell id="106" value="full marks bonus (+20)" style="ellipse;whiteSpace=wrap;html=1;aspect=fixed;" vertex="1" parent="1">
                    <mxGeometry x="-321.5" y="713.75" width="75" height="75" as="geometry"/>
                </mxCell>
                <mxCell id="109" value="quiz end showing scores and link to dashboard" style="rounded=1;whiteSpace=wrap;html=1;" vertex="1" parent="1">
                    <mxGeometry x="-149" y="868" width="120" height="60" as="geometry"/>
                </mxCell>
                <mxCell id="110" value="" style="edgeStyle=none;html=1;exitX=1;exitY=0.5;exitDx=0;exitDy=0;entryX=0;entryY=0.5;entryDx=0;entryDy=0;endArrow=none;" edge="1" parent="1" source="106" target="107">
                    <mxGeometry relative="1" as="geometry">
                        <mxPoint x="-246.5000000000016" y="751.25" as="sourcePoint"/>
                        <mxPoint x="-35" y="756" as="targetPoint"/>
                    </mxGeometry>
                </mxCell>
                <mxCell id="112" value="No" style="edgeStyle=none;html=1;exitX=1;exitY=0.5;exitDx=0;exitDy=0;entryX=0;entryY=0.5;entryDx=0;entryDy=0;" edge="1" parent="1" source="107" target="111">
                    <mxGeometry relative="1" as="geometry"/>
                </mxCell>
                <mxCell id="113" style="edgeStyle=none;html=1;exitX=0.5;exitY=1;exitDx=0;exitDy=0;entryX=0.5;entryY=0;entryDx=0;entryDy=0;" edge="1" parent="1" source="107" target="109">
                    <mxGeometry relative="1" as="geometry"/>
                </mxCell>
                <mxCell id="114" value="Yes" style="edgeLabel;html=1;align=center;verticalAlign=middle;resizable=0;points=[];" vertex="1" connectable="0" parent="113">
                    <mxGeometry x="-0.3102" y="1" relative="1" as="geometry">
                        <mxPoint as="offset"/>
                    </mxGeometry>
                </mxCell>
                <mxCell id="107" value="has user already&lt;br&gt;completed &lt;br&gt;a quiz today?" style="rhombus;whiteSpace=wrap;html=1;" vertex="1" parent="1">
                    <mxGeometry x="-163" y="698.25" width="148" height="106" as="geometry"/>
                </mxCell>
                <mxCell id="115" style="edgeStyle=none;html=1;exitX=0.5;exitY=1;exitDx=0;exitDy=0;entryX=1;entryY=0.5;entryDx=0;entryDy=0;" edge="1" parent="1" source="111" target="109">
                    <mxGeometry relative="1" as="geometry">
                        <Array as="points">
                            <mxPoint x="109" y="898"/>
                        </Array>
                    </mxGeometry>
                </mxCell>
                <mxCell id="111" value="+1 streak" style="ellipse;whiteSpace=wrap;html=1;aspect=fixed;" vertex="1" parent="1">
                    <mxGeometry x="69" y="711.25" width="80" height="80" as="geometry"/>
                </mxCell>
            </root>
        </mxGraphModel>
    </diagram>
</mxfile>